<svg width="80" height="80" viewBox="0 0 80 80" fill="none" xmlns="http://www.w3.org/2000/svg">
<g clip-path="url(#clip0_1675_111)">
<path d="M80 0H0V80H80V0Z" fill="url(#paint0_linear_1675_111)"/>
<path d="M68 39.9996C68.004 45.5002 66.3854 50.88 63.3466 55.4665C60.3078 60.053 55.9835 63.6426 50.9144 65.7868C45.8452 67.9309 40.2561 68.5344 34.8456 67.5218C29.4351 66.5092 24.4433 63.9255 20.4942 60.0935C16.5451 56.2616 13.8139 51.3515 12.642 45.9769C11.47 40.6024 11.9094 35.0019 13.9051 29.8755C15.9008 24.7491 19.3643 20.3243 23.8627 17.1541C28.3612 13.9839 33.6949 12.209 39.1972 12.0513C39.7266 11.9829 40.2627 11.9829 40.7922 12.0513C48.0752 12.2537 54.992 15.2864 60.0727 20.5047C65.1534 25.7229 67.9973 32.719 68 39.9996ZM30.6278 62.1518C31.2266 62.4039 31.8338 62.6313 32.4492 62.8339C28.7809 56.4722 26.8628 49.2538 26.8895 41.9116H15.9965C16.3518 46.2992 17.9036 50.5056 20.483 54.0739C23.0625 57.6422 26.5711 60.436 30.6278 62.1518ZM17.8108 30.6411C16.8186 32.9815 16.2085 35.4658 16.0035 37.9993H26.8895C26.8674 30.7013 28.7573 23.5247 32.3713 17.183C31.7843 17.3785 31.2031 17.5976 30.6278 17.8403C24.8559 20.2848 20.2602 24.8747 17.8108 30.6411ZM49.1813 37.9993C49.0942 35.2575 48.7855 32.5273 48.2582 29.8353C47.7425 27.0812 46.8958 24.3993 45.7365 21.8481C44.1556 18.4835 42.168 16.2888 40.4421 15.9566C40.1438 15.9521 39.8455 15.9521 39.5473 15.9566C37.8214 16.2888 35.8338 18.4835 34.2529 21.8516C33.0948 24.403 32.2493 27.0848 31.7347 29.8388C31.2076 32.5297 30.8989 35.2587 30.8117 37.9993H49.1813ZM45.7365 58.0592C46.8959 55.508 47.7426 52.8262 48.2582 50.072C48.784 47.381 49.0915 44.652 49.1777 41.9116H30.8152C30.9024 44.6533 31.2111 47.3835 31.7383 50.0755C32.253 52.8284 33.0985 55.509 34.2564 58.0592C35.9788 61.7207 38.1786 63.9967 40 63.9967C41.8214 63.9967 44.0212 61.7207 45.7401 58.0592H45.7365ZM62.1892 49.3581C63.1924 46.9901 63.8051 44.4754 64.0035 41.9116H53.1034C53.1317 49.2562 51.2135 56.4773 47.5438 62.841C48.1592 62.6384 48.7686 62.4098 49.3722 62.1554C55.1435 59.7117 59.739 55.1232 62.1892 49.3581ZM49.3722 17.8403C48.7963 17.5974 48.2111 17.3769 47.618 17.1794C51.2324 23.521 53.1223 30.6977 53.0999 37.9957H63.9965C63.6272 33.6237 62.0698 29.4355 59.4925 25.8834C56.9151 22.3313 53.4158 19.5502 49.3722 17.8403Z" fill="white"/>
</g>
<defs>
<linearGradient id="paint0_linear_1675_111" x1="0" y1="8000" x2="8000" y2="0" gradientUnits="userSpaceOnUse">
<stop stop-color="#055F4E"/>
<stop offset="1" stop-color="#56C0A7"/>
</linearGradient>
<clipPath id="clip0_1675_111">
<rect width="80" height="80" fill="white"/>
</clipPath>
</defs>
</svg>
